<svg xmlns="http://www.w3.org/2000/svg" xmlns:xlink="http://www.w3.org/1999/xlink" version="1.1" width="256" height="256" viewBox="0 0 256 256" xml:space="preserve">

<defs>
</defs>
<g style="stroke: none; stroke-width: 0; stroke-dasharray: none; stroke-linecap: butt; stroke-linejoin: miter; stroke-miterlimit: 10; fill: none; fill-rule: nonzero; opacity: 1;" transform="translate(1.4065934065934016 1.4065934065934016) scale(2.81 2.81)" >
	<path d="M 14.602 44.516 C 7.09 44.516 1 50.605 1 58.118 c 0 2.133 0.491 4.152 1.366 5.949 l 0.001 0 c 1.647 3.306 7.276 12.735 12.235 21.133 c 4.959 -8.398 10.588 -17.827 12.235 -21.133 l 0.001 0 c 0.875 -1.797 1.366 -3.815 1.366 -5.949 C 28.204 50.605 22.114 44.516 14.602 44.516 z M 14.602 63.209 c -3.115 0 -5.64 -2.525 -5.64 -5.64 s 2.525 -5.64 5.64 -5.64 c 3.115 0 5.64 2.525 5.64 5.64 S 17.717 63.209 14.602 63.209 z" style="stroke: none; stroke-width: 1; stroke-dasharray: none; stroke-linecap: butt; stroke-linejoin: miter; stroke-miterlimit: 10; fill: rgb(77,98,247); fill-rule: nonzero; opacity: 1;" transform=" matrix(1 0 0 1 0 0) " stroke-linecap="round" />
	<path d="M 75.398 4.801 c -7.512 0 -13.602 6.09 -13.602 13.602 c 0 2.133 0.491 4.152 1.366 5.949 l 0.001 0 c 1.647 3.306 7.276 12.735 12.235 21.133 c 4.958 -8.398 10.588 -17.827 12.235 -21.133 l 0.001 0 C 88.509 22.555 89 20.537 89 18.403 C 89 10.891 82.91 4.801 75.398 4.801 z M 75.398 23.495 c -3.115 0 -5.64 -2.525 -5.64 -5.64 c 0 -3.115 2.525 -5.64 5.64 -5.64 c 3.115 0 5.64 2.525 5.64 5.64 C 81.038 20.97 78.513 23.495 75.398 23.495 z" style="stroke: none; stroke-width: 1; stroke-dasharray: none; stroke-linecap: butt; stroke-linejoin: miter; stroke-miterlimit: 10; fill: rgb(77,98,247); fill-rule: nonzero; opacity: 1;" transform=" matrix(1 0 0 1 0 0) " stroke-linecap="round" />
	<path d="M 14.602 86.198 c -0.354 0 -0.681 -0.187 -0.861 -0.491 l -2.177 -3.683 C 7.303 74.821 2.897 67.372 1.472 64.513 C 0.494 62.506 0 60.357 0 58.117 c 0 -8.052 6.55 -14.602 14.602 -14.602 s 14.602 6.55 14.602 14.602 c 0 2.239 -0.494 4.389 -1.468 6.388 c -1.429 2.867 -5.834 10.313 -10.094 17.515 l -2.179 3.688 C 15.283 86.012 14.956 86.198 14.602 86.198 z M 14.602 45.516 C 7.653 45.516 2 51.169 2 58.117 c 0 1.933 0.426 3.787 1.265 5.512 C 4.654 66.415 9.04 73.828 13.28 80.997 l 1.322 2.236 l 1.317 -2.228 c 4.243 -7.173 8.63 -14.59 10.023 -17.386 c 0.836 -1.715 1.262 -3.569 1.262 -5.503 C 27.204 51.169 21.551 45.516 14.602 45.516 z" style="stroke: none; stroke-width: 1; stroke-dasharray: none; stroke-linecap: butt; stroke-linejoin: miter; stroke-miterlimit: 10; fill: rgb(0,0,0); fill-rule: nonzero; opacity: 1;" transform=" matrix(1 0 0 1 0 0) " stroke-linecap="round" />
	<path d="M 14.602 64.209 c -3.662 0 -6.64 -2.979 -6.64 -6.64 c 0 -3.662 2.979 -6.641 6.64 -6.641 s 6.64 2.979 6.64 6.641 C 21.242 61.23 18.264 64.209 14.602 64.209 z M 14.602 52.929 c -2.559 0 -4.64 2.082 -4.64 4.641 s 2.082 4.64 4.64 4.64 s 4.64 -2.081 4.64 -4.64 S 17.161 52.929 14.602 52.929 z" style="stroke: none; stroke-width: 1; stroke-dasharray: none; stroke-linecap: butt; stroke-linejoin: miter; stroke-miterlimit: 10; fill: rgb(0,0,0); fill-rule: nonzero; opacity: 1;" transform=" matrix(1 0 0 1 0 0) " stroke-linecap="round" />
	<path d="M 75.398 46.484 c -0.354 0 -0.682 -0.187 -0.861 -0.492 l -2.143 -3.625 c -4.276 -7.228 -8.697 -14.702 -10.127 -17.57 c -0.978 -2.005 -1.472 -4.154 -1.472 -6.394 c 0 -8.052 6.551 -14.602 14.603 -14.602 S 90 10.352 90 18.403 c 0 2.239 -0.493 4.387 -1.467 6.387 c -1.428 2.863 -5.627 9.964 -10.074 17.482 l -2.199 3.721 C 76.08 46.298 75.752 46.484 75.398 46.484 z M 75.398 5.801 c -6.949 0 -12.603 5.653 -12.603 12.602 c 0 1.933 0.426 3.787 1.266 5.511 c 1.393 2.793 5.793 10.231 10.048 17.424 l 1.289 2.181 l 1.333 -2.255 c 4.235 -7.161 8.615 -14.566 10.006 -17.359 C 87.574 22.19 88 20.337 88 18.403 C 88 11.455 82.347 5.801 75.398 5.801 z" style="stroke: none; stroke-width: 1; stroke-dasharray: none; stroke-linecap: butt; stroke-linejoin: miter; stroke-miterlimit: 10; fill: rgb(0,0,0); fill-rule: nonzero; opacity: 1;" transform=" matrix(1 0 0 1 0 0) " stroke-linecap="round" />
	<path d="M 75.398 24.495 c -3.662 0 -6.641 -2.979 -6.641 -6.641 s 2.979 -6.64 6.641 -6.64 c 3.661 0 6.64 2.979 6.64 6.64 S 79.06 24.495 75.398 24.495 z M 75.398 13.214 c -2.559 0 -4.641 2.082 -4.641 4.64 c 0 2.559 2.082 4.641 4.641 4.641 s 4.64 -2.082 4.64 -4.641 C 80.038 15.296 77.957 13.214 75.398 13.214 z" style="stroke: none; stroke-width: 1; stroke-dasharray: none; stroke-linecap: butt; stroke-linejoin: miter; stroke-miterlimit: 10; fill: rgb(0,0,0); fill-rule: nonzero; opacity: 1;" transform=" matrix(1 0 0 1 0 0) " stroke-linecap="round" />
	<path d="M 21.382 86.198 c -0.552 0 -1 -0.447 -1 -1 s 0.448 -1 1 -1 c 18.535 0 21.512 -9.771 24.663 -20.115 c 2.936 -9.636 5.971 -19.599 22.572 -19.599 c 0.553 0 1 0.448 1 1 c 0 0.553 -0.447 1 -1 1 c -15.12 0 -17.687 8.426 -20.659 18.181 C 44.884 74.759 41.399 86.198 21.382 86.198 z" style="stroke: none; stroke-width: 1; stroke-dasharray: none; stroke-linecap: butt; stroke-linejoin: miter; stroke-miterlimit: 10; fill: rgb(0,0,0); fill-rule: nonzero; opacity: 1;" transform=" matrix(1 0 0 1 0 0) " stroke-linecap="round" />
</g>
</svg>