<svg xmlns="http://www.w3.org/2000/svg" xmlns:xlink="http://www.w3.org/1999/xlink" version="1.1" width="256" height="256" viewBox="0 0 256 256" xml:space="preserve">

<defs>
</defs>
<g style="stroke: none; stroke-width: 0; stroke-dasharray: none; stroke-linecap: butt; stroke-linejoin: miter; stroke-miterlimit: 10; fill: none; fill-rule: nonzero; opacity: 1;" transform="translate(1.4065934065934016 1.4065934065934016) scale(2.81 2.81)" >
	<path d="M 25.762 75.506 V 69.71 c 0 -1.966 -1.6 -3.566 -3.566 -3.566 h -7.81 c -0.552 0 -0.999 0.447 -0.999 0.999 v 21.858 c 0 0.552 0.447 0.999 0.999 0.999 c 0.552 0 0.999 -0.447 0.999 -0.999 v -9.929 h 1.163 l 7.397 10.505 C 24.14 89.853 24.45 90 24.764 90 c 0.199 0 0.4 -0.06 0.574 -0.182 c 0.451 -0.317 0.56 -0.941 0.242 -1.393 l -6.586 -9.353 h 3.202 C 24.163 79.072 25.762 77.472 25.762 75.506 z M 15.386 68.142 h 6.811 c 0.864 0 1.567 0.703 1.567 1.567 v 5.796 c 0 0.865 -0.703 1.567 -1.567 1.567 h -6.811 V 68.142 z" style="stroke: none; stroke-width: 1; stroke-dasharray: none; stroke-linecap: butt; stroke-linejoin: miter; stroke-miterlimit: 10; fill: rgb(0,0,0); fill-rule: nonzero; opacity: 1;" transform=" matrix(1 0 0 1 0 0) " stroke-linecap="round" />
	<path d="M 85.137 29.231 l -8.827 -6.792 V 8.62 c 0 -1.946 -1.583 -3.529 -3.529 -3.529 h -5.495 c -1.946 0 -3.53 1.583 -3.53 3.529 v 4.158 L 48.845 1.307 c -2.264 -1.742 -5.426 -1.742 -7.69 0 L 4.863 29.231 c -0.848 0.652 -1.173 1.728 -0.829 2.74 c 0.344 1.013 1.258 1.667 2.328 1.667 h 7.328 v 27.381 c 0 0.552 0.447 0.999 0.999 0.999 c 0.552 0 0.999 -0.447 0.999 -0.999 V 33.638 h 58.622 v 27.151 c 0 0.552 0.447 0.999 0.999 0.999 c 0.552 0 0.999 -0.447 0.999 -0.999 V 33.638 h 7.329 c 1.07 0 1.983 -0.654 2.328 -1.667 C 86.31 30.958 85.985 29.883 85.137 29.231 z M 65.754 8.62 c 0 -0.844 0.687 -1.531 1.531 -1.531 h 5.495 c 0.844 0 1.53 0.687 1.53 1.531 v 12.28 l -8.557 -6.584 V 8.62 z M 84.074 31.328 c -0.04 0.117 -0.149 0.312 -0.435 0.312 H 6.362 c -0.287 0 -0.396 -0.195 -0.436 -0.312 s -0.072 -0.338 0.155 -0.513 L 42.374 2.89 c 0.773 -0.595 1.7 -0.892 2.626 -0.892 c 0.927 0 1.853 0.298 2.627 0.892 l 36.291 27.924 C 84.146 30.989 84.113 31.211 84.074 31.328 z" style="stroke: none; stroke-width: 1; stroke-dasharray: none; stroke-linecap: butt; stroke-linejoin: miter; stroke-miterlimit: 10; fill: rgb(0,0,0); fill-rule: nonzero; opacity: 1;" transform=" matrix(1 0 0 1 0 0) " stroke-linecap="round" />
	<path d="M 24.402 62.019 c -0.552 0 -0.999 -0.447 -0.999 -0.999 V 49.022 c 0 -0.552 0.447 -0.999 0.999 -0.999 h 5.695 c 0.552 0 0.999 0.447 0.999 0.999 s -0.447 0.999 -0.999 0.999 h -4.696 v 10.998 C 25.401 61.572 24.954 62.019 24.402 62.019 z" style="stroke: none; stroke-width: 1; stroke-dasharray: none; stroke-linecap: butt; stroke-linejoin: miter; stroke-miterlimit: 10; fill: rgb(0,0,0); fill-rule: nonzero; opacity: 1;" transform=" matrix(1 0 0 1 0 0) " stroke-linecap="round" />
	<path d="M 29.009 56.021 h -4.607 c -0.552 0 -0.999 -0.447 -0.999 -0.999 s 0.447 -0.999 0.999 -0.999 h 4.607 c 0.552 0 0.999 0.447 0.999 0.999 S 29.561 56.021 29.009 56.021 z" style="stroke: none; stroke-width: 1; stroke-dasharray: none; stroke-linecap: butt; stroke-linejoin: miter; stroke-miterlimit: 10; fill: rgb(0,0,0); fill-rule: nonzero; opacity: 1;" transform=" matrix(1 0 0 1 0 0) " stroke-linecap="round" />
	<path d="M 36.951 62.019 h -0.322 c -2.215 0 -4.018 -1.802 -4.018 -4.017 v -5.961 c 0 -2.215 1.803 -4.018 4.018 -4.018 h 0.322 c 2.215 0 4.017 1.803 4.017 4.018 v 5.961 C 40.968 60.217 39.166 62.019 36.951 62.019 z M 36.629 50.022 c -1.114 0 -2.019 0.906 -2.019 2.019 v 5.961 c 0 1.113 0.906 2.018 2.019 2.018 h 0.322 c 1.113 0 2.019 -0.906 2.019 -2.018 v -5.961 c 0 -1.114 -0.906 -2.019 -2.019 -2.019 H 36.629 z" style="stroke: none; stroke-width: 1; stroke-dasharray: none; stroke-linecap: butt; stroke-linejoin: miter; stroke-miterlimit: 10; fill: rgb(0,0,0); fill-rule: nonzero; opacity: 1;" transform=" matrix(1 0 0 1 0 0) " stroke-linecap="round" />
	<path d="M 51.138 53.612 v -3.181 c 0 -1.328 -1.08 -2.409 -2.409 -2.409 h -4.287 c -0.552 0 -0.999 0.447 -0.999 0.999 v 11.997 c 0 0.552 0.447 0.999 0.999 0.999 s 0.999 -0.447 0.999 -0.999 v -4.934 l 3.88 5.509 c 0.194 0.276 0.504 0.424 0.818 0.424 c 0.199 0 0.399 -0.06 0.575 -0.182 c 0.451 -0.317 0.559 -0.941 0.241 -1.393 l -3.115 -4.423 h 0.889 C 50.057 56.021 51.138 54.94 51.138 53.612 z M 45.442 50.022 h 3.287 c 0.226 0 0.41 0.183 0.41 0.41 v 3.181 c 0 0.226 -0.183 0.41 -0.41 0.41 h -3.287 V 50.022 z" style="stroke: none; stroke-width: 1; stroke-dasharray: none; stroke-linecap: butt; stroke-linejoin: miter; stroke-miterlimit: 10; fill: rgb(0,0,0); fill-rule: nonzero; opacity: 1;" transform=" matrix(1 0 0 1 0 0) " stroke-linecap="round" />
	<path d="M 41.941 79.04 c 0.552 0 0.999 -0.447 0.999 -0.999 s -0.447 -0.999 -0.999 -0.999 h -9.348 v -8.899 h 9.348 c 0.552 0 0.999 -0.447 0.999 -0.999 s -0.447 -0.999 -0.999 -0.999 H 31.594 c -0.552 0 -0.999 0.447 -0.999 0.999 v 21.796 c 0 0.552 0.447 0.999 0.999 0.999 h 10.347 c 0.552 0 0.999 -0.447 0.999 -0.999 c 0 -0.552 -0.447 -0.999 -0.999 -0.999 h -9.348 V 79.04 H 41.941 z" style="stroke: none; stroke-width: 1; stroke-dasharray: none; stroke-linecap: butt; stroke-linejoin: miter; stroke-miterlimit: 10; fill: rgb(0,0,0); fill-rule: nonzero; opacity: 1;" transform=" matrix(1 0 0 1 0 0) " stroke-linecap="round" />
	<path d="M 60.1 90 c -0.357 0 -0.696 -0.192 -0.874 -0.516 l -10.2 -18.465 v 17.982 c 0 0.552 -0.447 0.999 -0.999 0.999 c -0.552 0 -0.999 -0.447 -0.999 -0.999 V 67.143 c 0 -0.456 0.308 -0.854 0.75 -0.968 c 0.439 -0.114 0.904 0.086 1.124 0.485 l 10.2 18.465 V 67.143 c 0 -0.552 0.447 -0.999 0.999 -0.999 s 0.999 0.447 0.999 0.999 v 21.858 c 0 0.456 -0.308 0.854 -0.75 0.968 C 60.267 89.99 60.183 90 60.1 90 z" style="stroke: none; stroke-width: 1; stroke-dasharray: none; stroke-linecap: butt; stroke-linejoin: miter; stroke-miterlimit: 10; fill: rgb(0,0,0); fill-rule: nonzero; opacity: 1;" transform=" matrix(1 0 0 1 0 0) " stroke-linecap="round" />
	<path d="M 75.31 66.175 H 64.963 c -0.552 0 -0.999 0.447 -0.999 0.999 s 0.447 0.999 0.999 0.999 h 4.174 V 88.97 c 0 0.552 0.447 0.999 0.999 0.999 s 0.999 -0.447 0.999 -0.999 V 68.174 h 4.174 c 0.552 0 0.999 -0.447 0.999 -0.999 S 75.862 66.175 75.31 66.175 z" style="stroke: none; stroke-width: 1; stroke-dasharray: none; stroke-linecap: butt; stroke-linejoin: miter; stroke-miterlimit: 10; fill: rgb(0,0,0); fill-rule: nonzero; opacity: 1;" transform=" matrix(1 0 0 1 0 0) " stroke-linecap="round" />
</g>
</svg>