<svg xmlns="http://www.w3.org/2000/svg" xmlns:xlink="http://www.w3.org/1999/xlink" version="1.1" width="256" height="256" viewBox="0 0 256 256" xml:space="preserve">

<defs>
</defs>
<g style="stroke: none; stroke-width: 0; stroke-dasharray: none; stroke-linecap: butt; stroke-linejoin: miter; stroke-miterlimit: 10; fill: none; fill-rule: nonzero; opacity: 1;" transform="translate(1.4065934065934016 1.4065934065934016) scale(2.81 2.81)" >
	<path d="M 17.393 43.139 V 4.083 C 17.393 2.38 18.774 1 20.476 1 h 43.058 c 0.818 0 1.602 0.325 2.18 0.903 l 16.131 16.131 c 0.578 0.578 0.903 1.362 0.903 2.18 v 65.703 c 0 1.703 -1.38 3.083 -3.083 3.083 H 20.476 c -1.703 0 -3.083 -1.38 -3.083 -3.083 V 74.279" style="stroke: none; stroke-width: 1; stroke-dasharray: none; stroke-linecap: butt; stroke-linejoin: miter; stroke-miterlimit: 10; fill: rgb(220,223,225); fill-rule: nonzero; opacity: 1;" transform=" matrix(1 0 0 1 0 0) " stroke-linecap="round" />
	<path d="M 7.252 72.182 c 0 1.496 1.258 2.708 2.809 2.708 h 53.93 c 1.551 0 2.809 -1.212 2.809 -2.708 V 46.459 c 0 -1.496 -1.258 -2.708 -2.809 -2.708 h -53.93 c -1.551 0 -2.809 1.212 -2.809 2.708 V 72.182 z" style="stroke: none; stroke-width: 1; stroke-dasharray: none; stroke-linecap: butt; stroke-linejoin: miter; stroke-miterlimit: 10; fill: rgb(234,84,64); fill-rule: nonzero; opacity: 1;" transform=" matrix(1 0 0 1 0 0) " stroke-linecap="round" />
	<path d="M 82.748 18.937 H 67.62 c -1.551 0 -2.809 -1.258 -2.809 -2.809 V 1" style="stroke: none; stroke-width: 1; stroke-dasharray: none; stroke-linecap: butt; stroke-linejoin: miter; stroke-miterlimit: 10; fill: rgb(171,178,184); fill-rule: nonzero; opacity: 1;" transform=" matrix(1 0 0 1 0 0) " stroke-linecap="round" />
	<path d="M 82.748 19.937 H 67.62 c -2.1 0 -3.809 -1.709 -3.809 -3.809 V 1 h 2 v 15.128 c 0 0.998 0.812 1.809 1.809 1.809 h 15.128 V 19.937 z" style="stroke: none; stroke-width: 1; stroke-dasharray: none; stroke-linecap: butt; stroke-linejoin: miter; stroke-miterlimit: 10; fill: rgb(0,0,0); fill-rule: nonzero; opacity: 1;" transform=" matrix(1 0 0 1 0 0) " stroke-linecap="round" />
	<path d="M 79.665 90 H 20.476 c -2.251 0 -4.083 -1.832 -4.083 -4.083 V 74.278 h 2 v 11.639 c 0 1.148 0.935 2.083 2.083 2.083 h 59.189 c 1.148 0 2.083 -0.935 2.083 -2.083 V 20.214 c 0 -0.557 -0.217 -1.08 -0.609 -1.473 L 65.007 2.61 C 64.613 2.217 64.091 2 63.534 2 H 20.476 c -1.148 0 -2.083 0.935 -2.083 2.083 v 39.056 h -2 V 4.083 C 16.393 1.832 18.225 0 20.476 0 h 43.058 c 1.091 0 2.115 0.425 2.887 1.196 l 16.132 16.131 c 0.771 0.771 1.195 1.796 1.195 2.887 v 65.703 C 83.748 88.168 81.916 90 79.665 90 z" style="stroke: none; stroke-width: 1; stroke-dasharray: none; stroke-linecap: butt; stroke-linejoin: miter; stroke-miterlimit: 10; fill: rgb(0,0,0); fill-rule: nonzero; opacity: 1;" transform=" matrix(1 0 0 1 0 0) " stroke-linecap="round" />
	<path d="M 63.991 75.891 H 10.061 c -2.1 0 -3.809 -1.663 -3.809 -3.708 V 46.459 c 0 -2.045 1.709 -3.708 3.809 -3.708 h 53.931 c 2.1 0 3.809 1.664 3.809 3.708 v 25.724 C 67.8 74.228 66.091 75.891 63.991 75.891 z M 10.061 44.75 c -0.998 0 -1.809 0.767 -1.809 1.708 v 25.724 c 0 0.941 0.812 1.708 1.809 1.708 h 53.931 c 0.997 0 1.809 -0.767 1.809 -1.708 V 46.459 c 0 -0.942 -0.812 -1.708 -1.809 -1.708 H 10.061 z" style="stroke: none; stroke-width: 1; stroke-dasharray: none; stroke-linecap: butt; stroke-linejoin: miter; stroke-miterlimit: 10; fill: rgb(0,0,0); fill-rule: nonzero; opacity: 1;" transform=" matrix(1 0 0 1 0 0) " stroke-linecap="round" />
	<path d="M 41.915 68.592 c -0.552 0 -1 -0.447 -1 -1 V 54.615 c 0 -1.415 -1.151 -2.566 -2.567 -2.566 h -3.134 c -1.416 0 -2.567 1.151 -2.567 2.566 v 12.977 c 0 0.553 -0.448 1 -1 1 s -1 -0.447 -1 -1 V 54.615 c 0 -2.518 2.049 -4.566 4.567 -4.566 h 3.134 c 2.518 0 4.567 2.049 4.567 4.566 v 12.977 C 42.915 68.145 42.467 68.592 41.915 68.592 z" style="stroke: none; stroke-width: 1; stroke-dasharray: none; stroke-linecap: butt; stroke-linejoin: miter; stroke-miterlimit: 10; fill: rgb(0,0,0); fill-rule: nonzero; opacity: 1;" transform=" matrix(1 0 0 1 0 0) " stroke-linecap="round" />
	<path d="M 26.798 52.049 H 16.53 c -0.552 0 -1 -0.447 -1 -1 s 0.448 -1 1 -1 h 10.268 c 0.552 0 1 0.447 1 1 S 27.35 52.049 26.798 52.049 z" style="stroke: none; stroke-width: 1; stroke-dasharray: none; stroke-linecap: butt; stroke-linejoin: miter; stroke-miterlimit: 10; fill: rgb(0,0,0); fill-rule: nonzero; opacity: 1;" transform=" matrix(1 0 0 1 0 0) " stroke-linecap="round" />
	<path d="M 21.664 68.592 c -0.552 0 -1 -0.447 -1 -1 V 51.049 c 0 -0.553 0.448 -1 1 -1 s 1 0.447 1 1 v 16.543 C 22.664 68.145 22.216 68.592 21.664 68.592 z" style="stroke: none; stroke-width: 1; stroke-dasharray: none; stroke-linecap: butt; stroke-linejoin: miter; stroke-miterlimit: 10; fill: rgb(0,0,0); fill-rule: nonzero; opacity: 1;" transform=" matrix(1 0 0 1 0 0) " stroke-linecap="round" />
	<path d="M 41.915 60.32 H 31.647 c -0.552 0 -1 -0.447 -1 -1 s 0.448 -1 1 -1 h 10.268 c 0.552 0 1 0.447 1 1 S 42.467 60.32 41.915 60.32 z" style="stroke: none; stroke-width: 1; stroke-dasharray: none; stroke-linecap: butt; stroke-linejoin: miter; stroke-miterlimit: 10; fill: rgb(0,0,0); fill-rule: nonzero; opacity: 1;" transform=" matrix(1 0 0 1 0 0) " stroke-linecap="round" />
	<path d="M 57.522 68.592 c -0.335 0 -0.661 -0.168 -0.851 -0.473 L 46.404 51.576 c -0.291 -0.47 -0.147 -1.086 0.322 -1.377 c 0.471 -0.29 1.086 -0.146 1.377 0.322 l 10.268 16.543 c 0.291 0.47 0.147 1.086 -0.322 1.377 C 57.885 68.543 57.702 68.592 57.522 68.592 z" style="stroke: none; stroke-width: 1; stroke-dasharray: none; stroke-linecap: butt; stroke-linejoin: miter; stroke-miterlimit: 10; fill: rgb(0,0,0); fill-rule: nonzero; opacity: 1;" transform=" matrix(1 0 0 1 0 0) " stroke-linecap="round" />
	<path d="M 47.253 68.592 c -0.18 0 -0.362 -0.049 -0.526 -0.15 c -0.47 -0.291 -0.613 -0.907 -0.322 -1.377 l 10.268 -16.543 c 0.291 -0.469 0.908 -0.613 1.377 -0.322 c 0.47 0.291 0.613 0.907 0.322 1.377 L 48.104 68.119 C 47.914 68.424 47.587 68.592 47.253 68.592 z" style="stroke: none; stroke-width: 1; stroke-dasharray: none; stroke-linecap: butt; stroke-linejoin: miter; stroke-miterlimit: 10; fill: rgb(0,0,0); fill-rule: nonzero; opacity: 1;" transform=" matrix(1 0 0 1 0 0) " stroke-linecap="round" />
</g>
</svg>