<svg xmlns="http://www.w3.org/2000/svg" xmlns:xlink="http://www.w3.org/1999/xlink" version="1.1" width="256" height="256" viewBox="0 0 256 256" xml:space="preserve">

<defs>
</defs>
<g style="stroke: none; stroke-width: 0; stroke-dasharray: none; stroke-linecap: butt; stroke-linejoin: miter; stroke-miterlimit: 10; fill: none; fill-rule: nonzero; opacity: 1;" transform="translate(1.4065934065934016 1.4065934065934016) scale(2.81 2.81)" >
	<path d="M 22.5 39.299 L 22.5 39.299 c -6.5 0 -11.818 -5.318 -11.818 -11.818 v -4.238 c 0 -6.5 5.318 -11.818 11.818 -11.818 h 0 c 6.5 0 11.818 5.318 11.818 11.818 v 4.238 C 34.318 33.981 29 39.299 22.5 39.299 z" style="stroke: none; stroke-width: 1; stroke-dasharray: none; stroke-linecap: butt; stroke-linejoin: miter; stroke-miterlimit: 10; fill: rgb(240,88,47); fill-rule: nonzero; opacity: 1;" transform=" matrix(1 0 0 1 0 0) " stroke-linecap="round" />
	<path d="M 67.5 39.299 L 67.5 39.299 c -6.5 0 -11.818 -5.318 -11.818 -11.818 v -4.238 c 0 -6.5 5.318 -11.818 11.818 -11.818 h 0 c 6.5 0 11.818 5.318 11.818 11.818 v 4.238 C 79.318 33.981 74 39.299 67.5 39.299 z" style="stroke: none; stroke-width: 1; stroke-dasharray: none; stroke-linecap: butt; stroke-linejoin: miter; stroke-miterlimit: 10; fill: rgb(113,212,86); fill-rule: nonzero; opacity: 1;" transform=" matrix(1 0 0 1 0 0) " stroke-linecap="round" />
	<path d="M 45 53.762 L 45 53.762 c -4.707 0 -8.559 -3.852 -8.559 -8.559 v -3.069 c 0 -4.707 3.852 -8.559 8.559 -8.559 h 0 c 4.707 0 8.559 3.852 8.559 8.559 v 3.069 C 53.559 49.91 49.707 53.762 45 53.762 z" style="stroke: none; stroke-width: 1; stroke-dasharray: none; stroke-linecap: butt; stroke-linejoin: miter; stroke-miterlimit: 10; fill: rgb(110,177,225); fill-rule: nonzero; opacity: 1;" transform=" matrix(1 0 0 1 0 0) " stroke-linecap="round" />
	<path d="M 49.819 54.938 c -1.448 0.75 -3.084 1.181 -4.819 1.181 s -3.372 -0.432 -4.819 -1.181 c -6.471 0.966 -11.476 6.581 -11.476 13.31 v 8.854 c 0 0.81 0.663 1.473 1.473 1.473 h 29.645 c 0.81 0 1.473 -0.663 1.473 -1.473 v -8.854 C 61.296 61.519 56.29 55.904 49.819 54.938 z" style="stroke: none; stroke-width: 1; stroke-dasharray: none; stroke-linecap: butt; stroke-linejoin: miter; stroke-miterlimit: 10; fill: rgb(110,177,225); fill-rule: nonzero; opacity: 1;" transform=" matrix(1 0 0 1 0 0) " stroke-linecap="round" />
	<path d="M 24.205 68.247 c 0 -6.847 3.974 -12.964 9.831 -15.976 c -1.32 -2.04 -2.095 -4.463 -2.095 -7.068 v -3.07 c 0 -0.184 0.02 -0.363 0.028 -0.545 c -0.912 -0.288 -1.848 -0.521 -2.814 -0.665 c -1.999 1.035 -4.259 1.631 -6.654 1.631 s -4.655 -0.596 -6.654 -1.631 C 6.911 42.257 0 50.01 0 59.3 v 12.224 c 0 1.119 0.915 2.034 2.034 2.034 h 22.17 V 68.247 z" style="stroke: none; stroke-width: 1; stroke-dasharray: none; stroke-linecap: butt; stroke-linejoin: miter; stroke-miterlimit: 10; fill: rgb(240,88,47); fill-rule: nonzero; opacity: 1;" transform=" matrix(1 0 0 1 0 0) " stroke-linecap="round" />
	<path d="M 74.154 40.923 c -1.999 1.035 -4.259 1.631 -6.654 1.631 s -4.655 -0.596 -6.654 -1.631 c -0.966 0.144 -1.902 0.377 -2.815 0.665 c 0.008 0.182 0.028 0.361 0.028 0.545 v 3.07 c 0 2.605 -0.775 5.028 -2.094 7.068 c 5.857 3.012 9.832 9.129 9.832 15.976 v 5.312 h 22.17 c 1.119 0 2.034 -0.915 2.034 -2.034 V 59.3 C 90 50.01 83.089 42.257 74.154 40.923 z" style="stroke: none; stroke-width: 1; stroke-dasharray: none; stroke-linecap: butt; stroke-linejoin: miter; stroke-miterlimit: 10; fill: rgb(113,212,86); fill-rule: nonzero; opacity: 1;" transform=" matrix(1 0 0 1 0 0) " stroke-linecap="round" />
</g>
</svg>