<svg xmlns="http://www.w3.org/2000/svg" xmlns:xlink="http://www.w3.org/1999/xlink" version="1.1" width="256" height="256" viewBox="0 0 256 256" xml:space="preserve">

<defs>
</defs>
<g style="stroke: none; stroke-width: 0; stroke-dasharray: none; stroke-linecap: butt; stroke-linejoin: miter; stroke-miterlimit: 10; fill: none; fill-rule: nonzero; opacity: 1;" transform="translate(1.4065934065934016 1.4065934065934016) scale(2.81 2.81)" >
	<path d="M 47.756 39.522 H 44.49 h -3.335 c 0 9.265 -7.511 16.776 -16.776 16.776 S 7.602 48.787 7.602 39.522 H 1 C 1 50.831 9.031 60.263 19.701 62.43 v 5.002 h 9.354 V 62.43 C 39.725 60.263 47.756 50.831 47.756 39.522 z" style="stroke: none; stroke-width: 1; stroke-dasharray: none; stroke-linecap: butt; stroke-linejoin: miter; stroke-miterlimit: 10; fill: rgb(189,239,252); fill-rule: nonzero; opacity: 1;" transform=" matrix(1 0 0 1 0 0) " stroke-linecap="round" />
	<circle cx="80.736" cy="63.815999999999995" r="8.266" style="stroke: none; stroke-width: 1; stroke-dasharray: none; stroke-linecap: butt; stroke-linejoin: miter; stroke-miterlimit: 10; fill: rgb(189,239,252); fill-rule: nonzero; opacity: 1;" transform="  matrix(1 0 0 1 0 0) "/>
	<path d="M 81.733 54.61 v -4.389 c 0 -6.451 -5.248 -11.699 -11.698 -11.699 S 58.337 43.77 58.337 50.221 V 70.64 c 0 9.087 -7.393 16.479 -16.479 16.479 S 25.378 79.727 25.378 70.64 v -2.208 h 3.677 c 0.552 0 1 -0.447 1 -1 v -4.198 c 10.884 -2.597 18.701 -12.439 18.701 -23.711 c 0 -0.552 -0.447 -1 -1 -1 h -2.058 l 0.093 -29.369 c 0 -4.561 -3.711 -8.272 -8.272 -8.272 c -0.552 0 -1 0.448 -1 1 s 0.448 1 1 1 c 3.458 0 6.272 2.813 6.272 6.269 l -0.093 29.372 h -2.544 c -0.552 0 -1 0.448 -1 1 c 0 8.699 -7.077 15.776 -15.776 15.776 c -8.699 0 -15.776 -7.077 -15.776 -15.776 c 0 -0.552 -0.448 -1 -1 -1 H 5.058 L 4.966 9.153 c 0 -3.458 2.813 -6.272 6.272 -6.272 c 0.552 0 1 -0.448 1 -1 s -0.448 -1 -1 -1 c -4.561 0 -8.272 3.711 -8.272 8.275 l 0.093 29.366 H 1 c -0.552 0 -1 0.448 -1 1 c 0 11.272 7.817 21.115 18.701 23.711 v 4.198 c 0 0.553 0.448 1 1 1 h 3.677 v 2.208 c 0 10.189 8.29 18.479 18.479 18.479 s 18.479 -8.29 18.479 -18.479 V 50.221 c 0 -5.348 4.351 -9.699 9.698 -9.699 s 9.698 4.351 9.698 9.699 v 4.389 c -4.641 0.501 -8.267 4.439 -8.267 9.21 c 0 5.109 4.157 9.267 9.267 9.267 S 90 68.93 90 63.82 C 90 59.049 86.374 55.111 81.733 54.61 z M 19.9 61.45 C 9.855 59.41 2.478 50.697 2.022 40.522 h 2.039 c 0.001 0 0.002 0 0.003 0 H 6.63 c 0.521 9.338 8.282 16.776 17.748 16.776 c 9.466 0 17.228 -7.438 17.749 -16.776 h 2.565 c 0.001 0 0.002 0 0.003 0 h 2.039 c -0.455 10.175 -7.833 18.889 -17.877 20.928 c -0.466 0.095 -0.801 0.505 -0.801 0.98 v 4.001 h -7.354 v -4.001 C 20.701 61.955 20.366 61.545 19.9 61.45 z M 80.733 71.087 c -4.007 0 -7.267 -3.26 -7.267 -7.267 s 3.26 -7.267 7.267 -7.267 S 88 59.813 88 63.82 S 84.74 71.087 80.733 71.087 z" style="stroke: none; stroke-width: 1; stroke-dasharray: none; stroke-linecap: butt; stroke-linejoin: miter; stroke-miterlimit: 10; fill: rgb(0,0,0); fill-rule: nonzero; opacity: 1;" transform=" matrix(1 0 0 1 0 0) " stroke-linecap="round" />
	<circle cx="80.735" cy="63.824999999999996" r="3.355" style="stroke: none; stroke-width: 1; stroke-dasharray: none; stroke-linecap: butt; stroke-linejoin: miter; stroke-miterlimit: 10; fill: rgb(0,0,0); fill-rule: nonzero; opacity: 1;" transform="  matrix(1 0 0 1 0 0) "/>
</g>
</svg>