<svg xmlns="http://www.w3.org/2000/svg" xmlns:xlink="http://www.w3.org/1999/xlink" version="1.1" width="256" height="256" viewBox="0 0 256 256" xml:space="preserve">

<defs>
</defs>
<g style="stroke: none; stroke-width: 0; stroke-dasharray: none; stroke-linecap: butt; stroke-linejoin: miter; stroke-miterlimit: 10; fill: none; fill-rule: nonzero; opacity: 1;" transform="translate(1.4065934065934016 1.4065934065934016) scale(2.81 2.81)" >
	<path d="M 83.495 13.301 L 83.495 13.301 c -8.673 -8.673 -22.735 -8.673 -31.408 0 L 45 20.388 l -7.088 -7.088 c -8.673 -8.673 -22.735 -8.673 -31.408 0 v 0 c -8.673 8.673 -8.673 22.735 0 31.408 l 3.148 3.148 l 3.939 3.939 L 45 83.204 l 31.408 -31.408 l 0 0 l 7.088 -7.088 C 92.168 36.036 92.168 21.974 83.495 13.301 z" style="stroke: none; stroke-width: 1; stroke-dasharray: none; stroke-linecap: butt; stroke-linejoin: miter; stroke-miterlimit: 10; fill: rgb(255,36,36); fill-rule: nonzero; opacity: 1;" transform=" matrix(1 0 0 1 0 0) " stroke-linecap="round" />
	<polygon points="40.79,69.1 28.97,39.4 22.74,52.71 0,52.71 0,46.71 18.93,46.71 29.42,24.3 41.41,54.44 52.54,32.18 59.7,46.71 90,46.71 90,52.71 55.97,52.71 52.5,45.68 " style="stroke: none; stroke-width: 1; stroke-dasharray: none; stroke-linecap: butt; stroke-linejoin: miter; stroke-miterlimit: 10; fill: rgb(168,0,0); fill-rule: nonzero; opacity: 1;" transform="  matrix(1 0 0 1 0 0) "/>
</g>
</svg>