<?xml version="1.0" encoding="iso-8859-1"?>
<!-- Uploaded to: SVG Repo, www.svgrepo.com, Generator: SVG Repo Mixer Tools -->
<svg version="1.1" id="Layer_1" xmlns="http://www.w3.org/2000/svg" xmlns:xlink="http://www.w3.org/1999/xlink" 
	 viewBox="0 0 512 512" xml:space="preserve">
<path style="fill:#D80027;" d="M395.13,72.348H116.87c-46.032,0-83.478,37.446-83.478,83.478v133.565c159.377,0,285.764,0,445.217,0
	V155.826C478.609,109.794,441.163,72.348,395.13,72.348z"/>
<path style="fill:#A5001E;" d="M395.13,72.348H256v205.913c68.659,0,142.894,0,222.609,0V155.826
	C478.609,109.794,441.163,72.348,395.13,72.348z"/>
<rect x="239.304" y="72.348" style="fill:#830018;" width="33.391" height="217.043"/>
<path style="fill:#57565C;" d="M461.913,439.652H395.13c-9.223,0-16.696-7.473-16.696-16.696v-66.783
	c0-9.223,7.473-16.696,16.696-16.696h66.783c9.223,0,16.696,7.473,16.696,16.696v66.783
	C478.609,432.179,471.136,439.652,461.913,439.652z"/>
<path style="fill:#3E3D42;" d="M461.913,339.478h-33.391v100.174h33.391c9.223,0,16.696-7.473,16.696-16.696v-66.783
	C478.609,346.951,471.136,339.478,461.913,339.478z"/>
<path style="fill:#57565C;" d="M116.87,439.652H50.087c-9.223,0-16.696-7.473-16.696-16.696v-66.783
	c0-9.223,7.473-16.696,16.696-16.696h66.783c9.223,0,16.696,7.473,16.696,16.696v66.783
	C133.565,432.179,126.092,439.652,116.87,439.652z"/>
<path style="fill:#3E3D42;" d="M116.87,339.478H83.478v100.174h33.391c9.223,0,16.696-7.473,16.696-16.696v-66.783
	C133.565,346.951,126.092,339.478,116.87,339.478z"/>
<path style="fill:#FF0C38;" d="M478.609,372.87H33.391C14.978,372.87,0,357.891,0,339.478V256c0-27.619,22.468-50.087,50.087-50.087
	s50.087,22.468,50.087,50.087v16.696h311.652V256c0-27.619,22.468-50.087,50.087-50.087S512,228.381,512,256v83.478
	C512,357.891,497.022,372.87,478.609,372.87z"/>
<path style="fill:#D80027;" d="M461.913,205.913c-27.619,0-50.087,22.468-50.087,50.087v16.696H256V372.87h222.609
	c18.413,0,33.391-14.978,33.391-33.391V256C512,228.381,489.532,205.913,461.913,205.913z"/>
</svg>